# xmcd
# Track frame offsets:
# 150
# 11572
# 22895
# 34992
# 47902
# 65562
# 77647
# 90807
# 103225
# 114337
# 125760
# 141025
# 154542
# 166235
# 182542
# 195200
# 205147
# 216927
# 228237
# 241907
#
# Disc length: 3391 seconds
# Revision: 0
# Processed by: cddbd v1.4PL0 Copyright (c) Steve Scherf et al.
# Submitted via: VisiTrax 2.9.5.180 - For more info visit www.synapsa.com
#
DISCID=fc0d3d14
DTITLE=Hank Thompson - The wild side of life
DYEAR=1994
DGENRE=
TTITLE0=Who left the doors to heaven open
TTITLE1=When my blue moon turns to gold
TTITLE2=There's a honky tonk angel (who'll take me back in)
TTITLE3=I recall a gypsy woman
TTITLE4=Mama don't 'low
TTITLE5=Wait a little longer baby
TTITLE6=Loving on a back street
TTITLE7=Whatever's left
TTITLE8=Fair weather love
TTITLE9=Red necks, white socks and blue ribbon beer
TTITLE10=Country bumkin
TTITLE11=I've come awful close
TTITLE12=Oklahoma hills
TTITLE13=The mark of a heel
TTITLE14=(I've got a) Humpty dumpty heart
TTITLE15=Green light
TTITLE16=Smokey the bar
TTITLE17=Squaws along the ukon
TTITLE18=The wild side of life
TTITLE19=Next time I fall in love (I won't)
EXTD=
EXTT0=
EXTT1=
EXTT2=
EXTT3=
EXTT4=
EXTT5=
EXTT6=
EXTT7=
EXTT8=
EXTT9=
EXTT10=
EXTT11=
EXTT12=
EXTT13=
EXTT14=
EXTT15=
EXTT16=
EXTT17=
EXTT18=
EXTT19=
PLAYORDER=
